<?xml version="1.0" encoding="UTF-8"?>
<svg version="1.1" xmlns="http://www.w3.org/2000/svg" width="504" height="111">
<path d="M0 0 C0.91644287 0.00829834 1.83288574 0.01659668 2.77709961 0.02514648 C17.15308031 0.3812197 29.82284163 5.72142773 40.4375 15.5 C51.33941593 27.11549588 56.66944054 41.59935709 56.6875 57.4375 C55.71055153 73.44169216 49.67511142 87.22366638 37.875 98.25 C24.39189722 109.27441934 8.72931428 112.79266871 -8.3125 111.4375 C-24.10059697 108.74671551 -36.9208932 100.53888971 -46.34765625 87.65625 C-55.01148152 73.97071709 -57.62450391 58.05610182 -54.1875 42.25 C-50.94967258 31.08249339 -45.56883006 22.56300793 -37.3125 14.4375 C-36.7246875 13.85097656 -36.136875 13.26445312 -35.53125 12.66015625 C-25.87676526 3.71154186 -12.93852136 -0.15272722 0 0 Z M-25.3125 20.4375 C-26.4701585 22.31707244 -26.4701585 22.31707244 -26.3125 24.4375 C-24.67173508 27.88310634 -23.52737558 29.29424962 -20.3125 31.4375 C-16.92846451 31.29649852 -14.99328262 31.00847897 -12.375 28.8125 C-10.79991998 25.2917329 -11.24845398 23.09515818 -12.3125 19.4375 C-17.53812338 15.17449146 -20.59859286 15.97169323 -25.3125 20.4375 Z M-4.0625 18 C-6.61723311 20.32865639 -6.61723311 20.32865639 -6.9375 23.9375 C-6.60014001 27.52433893 -6.60014001 27.52433893 -4.1875 29.9375 C-1.39100006 31.68927508 -1.39100006 31.68927508 1.8125 31.375 C5.43635167 30.25660282 5.43635167 30.25660282 7.6875 27.4375 C8.35426878 23.98000051 8.35426878 23.98000051 7.6875 20.4375 C5.56064071 17.8857714 5.56064071 17.8857714 2.6875 16.4375 C-1.2600115 16.10816039 -1.2600115 16.10816039 -4.0625 18 Z M12.6875 20.4375 C11.6088446 23.31391441 11.44149292 24.71997935 12.4375 27.625 C13.72333873 29.72863844 13.72333873 29.72863844 16.6875 31.4375 C20.37006285 31.3059799 22.78498237 31.17079557 25.6875 28.8125 C27.17160166 25.28775855 26.74404989 23.06939024 25.6875 19.4375 C20.49688241 15.20304881 17.3400672 15.90736877 12.6875 20.4375 Z M-25.3125 39.4375 C-26.38892709 41.32600355 -26.38892709 41.32600355 -26.3125 43.4375 C-24.89627547 46.93640767 -23.80242226 48.18188838 -20.4375 49.9375 C-17.28797822 50.73276395 -17.28797822 50.73276395 -14.5 49.1875 C-11.72435213 46.96698171 -11.39675307 46.08344022 -10.9375 42.5625 C-11.02123455 39.28902853 -11.02123455 39.28902853 -13.5 37.0625 C-18.71459784 34.04962125 -21.62116756 34.69150115 -25.3125 39.4375 Z M-6.3125 39.4375 C-6.88148646 42.85141877 -6.70496573 44.67322462 -5.125 47.75 C-2.79699908 49.91744914 -1.4907781 50.36182671 1.6875 50.4375 C5.40011227 48.68636475 5.40011227 48.68636475 7.6875 45.4375 C8.08116259 41.8158042 8.13975485 40.07400683 6 37.0625 C3.80963938 35.29372153 3.80963938 35.29372153 1.25 34.9375 C-2.26635308 35.62361767 -3.89154909 36.80903902 -6.3125 39.4375 Z M12.6875 39.4375 C11.61107291 41.32600355 11.61107291 41.32600355 11.6875 43.4375 C13.10372453 46.93640767 14.19757774 48.18188838 17.5625 49.9375 C20.67500975 50.68236086 20.67500975 50.68236086 23.5 49.5 C25.96045081 47.50611433 25.96045081 47.50611433 26.8125 44.0625 C27.02100045 40.32340399 27.02100045 40.32340399 24.5625 37.5 C21.90821769 35.30906179 21.90821769 35.30906179 19.125 34.875 C15.89755666 35.61979462 14.70520081 36.84331324 12.6875 39.4375 Z M-25.3125 58.4375 C-26.4701585 60.31707244 -26.4701585 60.31707244 -26.3125 62.4375 C-24.67173508 65.88310634 -23.52737558 67.29424962 -20.3125 69.4375 C-16.92846451 69.29649852 -14.99328262 69.00847897 -12.375 66.8125 C-10.81449057 63.32430246 -11.32095336 61.07317102 -12.3125 57.4375 C-14.00414222 55.39720404 -14.00414222 55.39720404 -16.3125 54.4375 C-21.02031138 54.4375 -22.02184836 55.23578489 -25.3125 58.4375 Z M-4.0625 56 C-6.61723311 58.32865639 -6.61723311 58.32865639 -6.9375 61.9375 C-6.60014001 65.52433893 -6.60014001 65.52433893 -4.1875 67.9375 C-1.39100006 69.68927508 -1.39100006 69.68927508 1.8125 69.375 C5.43635167 68.25660282 5.43635167 68.25660282 7.6875 65.4375 C8.35426878 61.98000051 8.35426878 61.98000051 7.6875 58.4375 C5.56064071 55.8857714 5.56064071 55.8857714 2.6875 54.4375 C-1.2600115 54.10816039 -1.2600115 54.10816039 -4.0625 56 Z M15 56.125 C12.59193177 58.2512112 12.59193177 58.2512112 11.625 60.875 C11.48930754 63.59305164 11.48930754 63.59305164 13.25 66.1875 C15.55642734 68.59536277 15.55642734 68.59536277 18.625 69.5625 C21.85703213 69.70084224 21.85703213 69.70084224 24.625 67.4375 C27.01936879 64.54624242 27.01936879 64.54624242 26.75 60.8125 C25.957586 57.44637269 25.957586 57.44637269 23.875 55.5 C20.33288057 53.77954199 18.28060233 54.06508691 15 56.125 Z M15.9375 77.4375 C12.8071336 80.22004791 12.24618747 82.3171799 11.6875 86.4375 C13.13949734 90.48780837 14.08808291 92.03788861 17.6875 94.4375 C20.81271833 94.60449232 20.81271833 94.60449232 23.6875 94.4375 C24.0175 93.1175 24.3475 91.7975 24.6875 90.4375 C23.2334375 90.4684375 23.2334375 90.4684375 21.75 90.5 C18.6875 90.4375 18.6875 90.4375 17.6875 89.4375 C17.61570036 87.91821962 17.60357993 86.39582518 17.625 84.875 C17.63402344 84.04871094 17.64304687 83.22242187 17.65234375 82.37109375 C17.66394531 81.73300781 17.67554687 81.09492187 17.6875 80.4375 C19.9975 80.4375 22.3075 80.4375 24.6875 80.4375 C24.6875 79.4475 24.6875 78.4575 24.6875 77.4375 C21.28955485 76.56825822 19.27196283 76.22496806 15.9375 77.4375 Z M-24.3125 77.4375 C-24.42044277 79.70729665 -24.49806176 81.97855196 -24.5625 84.25 C-24.60890625 85.51457031 -24.6553125 86.77914062 -24.703125 88.08203125 C-24.64678333 91.4617171 -24.64678333 91.4617171 -22.515625 93.35546875 C-19.22562203 94.97130354 -16.91902478 94.95271783 -13.3125 94.4375 C-10.60347508 92.78770768 -10.60347508 92.78770768 -9.3125 89.4375 C-8.99335664 85.41420092 -9.0813233 81.46382745 -9.3125 77.4375 C-10.9625 77.4375 -12.6125 77.4375 -14.3125 77.4375 C-14.6425 81.7275 -14.9725 86.0175 -15.3125 90.4375 C-16.6325 90.4375 -17.9525 90.4375 -19.3125 90.4375 C-19.6425 86.1475 -19.9725 81.8575 -20.3125 77.4375 C-21.6325 77.4375 -22.9525 77.4375 -24.3125 77.4375 Z M-4.3125 77.4375 C-4.3125 83.0475 -4.3125 88.6575 -4.3125 94.4375 C-3.3225 94.4375 -2.3325 94.4375 -1.3125 94.4375 C-1.3125 92.4575 -1.3125 90.4775 -1.3125 88.4375 C-0.384375 88.499375 0.54375 88.56125 1.5 88.625 C4.59497504 88.68989801 4.59497504 88.68989801 6.5625 87.3125 C8.19281294 84.59531176 8.01765665 82.54097254 7.6875 79.4375 C5.87556994 77.19425164 5.87556994 77.19425164 3.3046875 77.2421875 C2.39976563 77.26539062 1.49484375 77.28859375 0.5625 77.3125 C-1.04625 77.35375 -2.655 77.395 -4.3125 77.4375 Z " fill="#000000" transform="translate(55.3125,-0.4375)"/>
<path d="M0 0 C5 0 5 0 6.58203125 1.53125 C6.98808594 2.1809375 7.39414062 2.830625 7.8125 3.5 C8.23144531 4.1496875 8.65039062 4.799375 9.08203125 5.46875 C9.38496094 5.9740625 9.68789063 6.479375 10 7 C10.33 4.69 10.66 2.38 11 0 C12.65 0 14.3 0 16 0 C16 6.27 16 12.54 16 19 C14.35 19 12.7 19 11 19 C9.41796875 17.25 9.41796875 17.25 8.1875 15 C7.55908203 13.88625 7.55908203 13.88625 6.91796875 12.75 C6.61503906 12.1725 6.31210937 11.595 6 11 C5.67 13.64 5.34 16.28 5 19 C3.35 19 1.7 19 0 19 C0 12.73 0 6.46 0 0 Z " fill="#010101" transform="translate(279,46)"/>
<path d="M0 0 C10.7421875 -0.1953125 10.7421875 -0.1953125 14 0 C16 2 16 2 16.16015625 3.8828125 C16.12792969 4.62273438 16.09570312 5.36265625 16.0625 6.125 C15.95538309 10.53107576 16.36599121 14.64118955 17 19 C15.35 19 13.7 19 12 19 C11.34 17.02 10.68 15.04 10 13 C8.35 12.67 6.7 12.34 5 12 C5 14.31 5 16.62 5 19 C3.35 19 1.7 19 0 19 C0 12.73 0 6.46 0 0 Z M5 4 C5 5.32 5 6.64 5 8 C6.65 8 8.3 8 10 8 C10 6.68 10 5.36 10 4 C8.35 4 6.7 4 5 4 Z " fill="#020202" transform="translate(219,16)"/>
<path d="M0 0 C1.65 0 3.3 0 5 0 C6.58203125 1.75 6.58203125 1.75 7.8125 4 C8.23144531 4.7425 8.65039062 5.485 9.08203125 6.25 C9.38496094 6.8275 9.68789062 7.405 10 8 C10.33 5.36 10.66 2.72 11 0 C12.65 0 14.3 0 16 0 C16 6.27 16 12.54 16 19 C14.02 19 12.04 19 10 19 C8.3203125 17.25 8.3203125 17.25 7.125 15 C6.71507812 14.2575 6.30515625 13.515 5.8828125 12.75 C5.59148437 12.1725 5.30015625 11.595 5 11 C4.67 13.64 4.34 16.28 4 19 C2.68 19 1.36 19 0 19 C0 12.73 0 6.46 0 0 Z " fill="#010101" transform="translate(152,16)"/>
<path d="M0 0 C1.65 0 3.3 0 5 0 C6.58203125 1.75 6.58203125 1.75 7.8125 4 C8.23144531 4.7425 8.65039062 5.485 9.08203125 6.25 C9.38496094 6.8275 9.68789063 7.405 10 8 C10.33 5.36 10.66 2.72 11 0 C12.65 0 14.3 0 16 0 C16 6.27 16 12.54 16 19 C14.35 19 12.7 19 11 19 C9.19921875 17.03125 9.19921875 17.03125 7.6875 14.5 C6.91986328 13.24703125 6.91986328 13.24703125 6.13671875 11.96875 C5.76160156 11.3190625 5.38648438 10.669375 5 10 C4.67 12.97 4.34 15.94 4 19 C2.68 19 1.36 19 0 19 C0 12.73 0 6.46 0 0 Z " fill="#010101" transform="translate(439,16)"/>
<path d="M0 0 C2.74337994 1.64602796 3.64802249 2.8209984 4.55859375 5.87109375 C5.21545592 9.45336268 5.22344507 11.48607633 3.75 14.875 C1.22139044 17.94545446 -0.40210211 18.9335669 -4.375 19.375 C-8.5634385 18.94171326 -10.06240039 17.93759961 -13 15 C-14.53214888 11.93570224 -14.22938548 9.3834358 -14 6 C-10.84833622 -0.58984245 -6.84267158 -0.84011448 0 0 Z M-7.75 5.125 C-9.29085045 7.0492807 -9.29085045 7.0492807 -8.9375 10.0625 C-8.30199095 13.10851061 -8.30199095 13.10851061 -5.9375 14.375 C-5.298125 14.58125 -4.65875 14.7875 -4 15 C-0.8567486 13.32987773 -0.8567486 13.32987773 -0.125 10.625 C0.22911366 7.94768401 0.22911366 7.94768401 -1.25 5.6875 C-3.57920536 3.44148054 -5.02168169 3.37108109 -7.75 5.125 Z " fill="#040404" transform="translate(353,16)"/>
<path d="M0 0 C9.89458128 -0.47684729 9.89458128 -0.47684729 14.1875 1.375 C16.58317367 4.84459636 16.51920007 7.42559455 16.46875 11.5625 C15.9124251 14.45538947 15.01540911 15.87051112 13 18 C9.98509443 19.00496852 7.95818308 19.10335303 4.8125 19.0625 C3.224375 19.041875 1.63625 19.02125 0 19 C0 12.73 0 6.46 0 0 Z M5 4 C5 7.3 5 10.6 5 14 C6.65 14 8.3 14 10 14 C11.38908639 12.82889816 11.38908639 12.82889816 11.25 9.5625 C11.1675 8.386875 11.085 7.21125 11 6 C8.18490007 3.7226499 8.18490007 3.7226499 5 4 Z " fill="#000000" transform="translate(132,46)"/>
<path d="M0 0 C4.62 0 9.24 0 14 0 C14 1.32 14 2.64 14 4 C11.03 4 8.06 4 5 4 C5 4.99 5 5.98 5 7 C7.97 7 10.94 7 14 7 C14 8.32 14 9.64 14 11 C11.03 11 8.06 11 5 11 C5 11.99 5 12.98 5 14 C8.3 14 11.6 14 15 14 C15 15.65 15 17.3 15 19 C10.05 19 5.1 19 0 19 C0 12.73 0 6.46 0 0 Z " fill="#000000" transform="translate(402,16)"/>
<path d="M0 0 C4.62 0 9.24 0 14 0 C14 1.32 14 2.64 14 4 C11.03 4 8.06 4 5 4 C5 4.99 5 5.98 5 7 C7.97 7 10.94 7 14 7 C14 8.32 14 9.64 14 11 C11.03 11 8.06 11 5 11 C5 11.99 5 12.98 5 14 C8.3 14 11.6 14 15 14 C15 15.65 15 17.3 15 19 C10.05 19 5.1 19 0 19 C0 12.73 0 6.46 0 0 Z " fill="#000000" transform="translate(201,16)"/>
<path d="M0 0 C1.3303125 0.00773438 1.3303125 0.00773438 2.6875 0.015625 C3.574375 0.01046875 4.46125 0.0053125 5.375 0 C7.6875 0.265625 7.6875 0.265625 9.6875 2.265625 C9.6875 3.585625 9.6875 4.905625 9.6875 6.265625 C8.0375 6.265625 6.3875 6.265625 4.6875 6.265625 C4.6875 5.605625 4.6875 4.945625 4.6875 4.265625 C3.3675 4.265625 2.0475 4.265625 0.6875 4.265625 C0.6875 4.925625 0.6875 5.585625 0.6875 6.265625 C2.70572917 6.72135417 4.72395833 7.17708333 6.7421875 7.6328125 C8.6875 8.265625 8.6875 8.265625 10.6875 10.265625 C10.5 13.765625 10.5 13.765625 9.6875 17.265625 C5.98961684 19.73088044 2.97779836 19.82673042 -1.3125 19.265625 C-3.8125 18.015625 -3.8125 18.015625 -5.3125 16.265625 C-5.3125 14.945625 -5.3125 13.625625 -5.3125 12.265625 C-3.6625 12.265625 -2.0125 12.265625 -0.3125 12.265625 C0.0175 12.925625 0.3475 13.585625 0.6875 14.265625 C2.0075 13.935625 3.3275 13.605625 4.6875 13.265625 C0.2325 11.285625 0.2325 11.285625 -4.3125 9.265625 C-4.4375 5.890625 -4.4375 5.890625 -4.3125 2.265625 C-2.3125 0.265625 -2.3125 0.265625 0 0 Z " fill="#030303" transform="translate(243.3125,15.734375)"/>
<path d="M0 0 C1.65 0 3.3 0 5 0 C5 2.31 5 4.62 5 7 C6.98 7 8.96 7 11 7 C11 4.69 11 2.38 11 0 C12.65 0 14.3 0 16 0 C16 6.27 16 12.54 16 19 C14.35 19 12.7 19 11 19 C11 16.36 11 13.72 11 11 C9.02 11 7.04 11 5 11 C5 13.64 5 16.28 5 19 C3.35 19 1.7 19 0 19 C0 12.73 0 6.46 0 0 Z " fill="#000000" transform="translate(345,76)"/>
<path d="M0 0 C4.62 0 9.24 0 14 0 C14 1.32 14 2.64 14 4 C11.03 4 8.06 4 5 4 C5 4.99 5 5.98 5 7 C7.64 7 10.28 7 13 7 C13 8.32 13 9.64 13 11 C10.36 11 7.72 11 5 11 C5 11.99 5 12.98 5 14 C7.97 14 10.94 14 14 14 C14 15.65 14 17.3 14 19 C9.38 19 4.76 19 0 19 C0 12.73 0 6.46 0 0 Z " fill="#000000" transform="translate(310,76)"/>
<path d="M0 0 C4.62 0 9.24 0 14 0 C14 1.32 14 2.64 14 4 C11.03 4 8.06 4 5 4 C5 4.99 5 5.98 5 7 C7.64 7 10.28 7 13 7 C13 8.32 13 9.64 13 11 C10.36 11 7.72 11 5 11 C5 11.99 5 12.98 5 14 C7.97 14 10.94 14 14 14 C14 15.65 14 17.3 14 19 C9.38 19 4.76 19 0 19 C0 12.73 0 6.46 0 0 Z " fill="#000000" transform="translate(151,46)"/>
<path d="M0 0 C1.65 0 3.3 0 5 0 C5 4.62 5 9.24 5 14 C6.65 13.67 8.3 13.34 10 13 C10.33 8.71 10.66 4.42 11 0 C12.65 0 14.3 0 16 0 C16.10826289 2.4178712 16.18739789 4.83087556 16.25 7.25 C16.30027344 8.27287109 16.30027344 8.27287109 16.3515625 9.31640625 C16.41800114 12.73799613 16.25439192 14.64599001 14.234375 17.45703125 C11.87060433 19.0893554 10.82826949 19.52035946 8 19.4375 C7.34 19.43621094 6.68 19.43492188 6 19.43359375 C3.16966966 18.81998698 1.94616469 18.18728244 0 16 C-0.29561076 13.12961948 -0.37943016 10.66245255 -0.25 7.8125 C-0.23195313 7.06291016 -0.21390625 6.31332031 -0.1953125 5.54101562 C-0.14824109 3.6934629 -0.07649766 1.84656841 0 0 Z " fill="#020202" transform="translate(259,46)"/>
<path d="M0 0 C1.65 0 3.3 0 5 0 C5.33 4.62 5.66 9.24 6 14 C7.32 13.67 8.64 13.34 10 13 C10.33 8.71 10.66 4.42 11 0 C12.65 0 14.3 0 16 0 C16.10853983 2.22808159 16.18583307 4.45769932 16.25 6.6875 C16.29640625 7.92886719 16.3428125 9.17023437 16.390625 10.44921875 C15.93323425 14.60690066 15.06827715 16.19577424 12 19 C9.74609375 19.59375 9.74609375 19.59375 7.4375 19.5 C6.67308594 19.4896875 5.90867188 19.479375 5.12109375 19.46875 C3 19 3 19 1.234375 17.98046875 C-0.74582691 14.80337265 -0.31072776 11.43034056 -0.1875 7.8125 C-0.17396484 7.06291016 -0.16042969 6.31332031 -0.14648438 5.54101562 C-0.11118539 3.69370233 -0.05737917 1.84675934 0 0 Z " fill="#000000" transform="translate(132,16)"/>
<path d="M0 0 C0.78246094 -0.02578125 1.56492187 -0.0515625 2.37109375 -0.078125 C4.5625 0.25 4.5625 0.25 6.34765625 1.515625 C7.5625 3.25 7.5625 3.25 7.5625 7.25 C5.9125 7.25 4.2625 7.25 2.5625 7.25 C2.2325 6.59 1.9025 5.93 1.5625 5.25 C-0.0875 5.25 -1.7375 5.25 -3.4375 5.25 C-3.4375 7.56 -3.4375 9.87 -3.4375 12.25 C-0.5950146 13.82273568 -0.5950146 13.82273568 2.5625 14.25 C2.8925 13.26 3.2225 12.27 3.5625 11.25 C5.2125 11.25 6.8625 11.25 8.5625 11.25 C6.9375 17 6.9375 17 3.5625 19.25 C-3.55614407 19.9279661 -3.55614407 19.9279661 -6.875 17.375 C-9.69120672 13.54495887 -9.76023441 11.01033254 -9.4375 6.25 C-7.06401883 1.28726665 -5.39153287 0.1062371 0 0 Z " fill="#030303" transform="translate(335.4375,75.75)"/>
<path d="M0 0 C2.33984375 0.56640625 2.33984375 0.56640625 4.1484375 2.4140625 C5.33984375 4.56640625 5.33984375 4.56640625 5.33984375 7.56640625 C3.68984375 7.56640625 2.03984375 7.56640625 0.33984375 7.56640625 C0.00984375 6.90640625 -0.32015625 6.24640625 -0.66015625 5.56640625 C-2.31015625 5.89640625 -3.96015625 6.22640625 -5.66015625 6.56640625 C-5.66015625 9.20640625 -5.66015625 11.84640625 -5.66015625 14.56640625 C-3.1874886 14.22195744 -3.1874886 14.22195744 -0.66015625 13.56640625 C-0.33015625 12.90640625 -0.00015625 12.24640625 0.33984375 11.56640625 C1.98984375 11.56640625 3.63984375 11.56640625 5.33984375 11.56640625 C5.02734375 14.44140625 5.02734375 14.44140625 4.33984375 17.56640625 C0.64264228 20.03120723 -2.37171591 20.35067355 -6.66015625 19.56640625 C-9.66015625 17.62890625 -9.66015625 17.62890625 -11.66015625 14.56640625 C-12.57452978 10.0916402 -12.1500266 6.65748112 -10.28515625 2.50390625 C-6.80192965 -0.06704672 -4.23742258 0.00637206 0 0 Z " fill="#030303" transform="translate(186.66015625,45.43359375)"/>
<path d="M0 0 C1.65 0 3.3 0 5 0 C10.37129841 12.48519362 10.37129841 12.48519362 12 19 C10.02 19 8.04 19 6 19 C5.67 18.01 5.34 17.02 5 16 C2.03 15.505 2.03 15.505 -1 15 C-1.33 16.32 -1.66 17.64 -2 19 C-3.65 19 -5.3 19 -7 19 C-5.17778624 12.38757278 -2.94776396 6.19479329 0 0 Z M2 7 C1.67 8.32 1.34 9.64 1 11 C1.99 10.67 2.98 10.34 4 10 C3.34 9.01 2.68 8.02 2 7 Z " fill="#030303" transform="translate(231,46)"/>
<path d="M0 0 C1.98 0 3.96 0 6 0 C7.00605593 2.60197202 8.00502525 5.20629362 9 7.8125 C9.28617187 8.55048828 9.57234375 9.28847656 9.8671875 10.04882812 C10.13789063 10.76103516 10.40859375 11.47324219 10.6875 12.20703125 C10.93886719 12.8616333 11.19023437 13.51623535 11.44921875 14.19067383 C12 16 12 16 12 19 C10.35 19 8.7 19 7 19 C6.67 17.68 6.34 16.36 6 15 C4.02 15 2.04 15 0 15 C-0.33 16.32 -0.66 17.64 -1 19 C-2.65 19 -4.3 19 -6 19 C-5.28739906 14.71620357 -3.93078264 10.74906147 -2.4375 6.6875 C-2.20353516 6.04232422 -1.96957031 5.39714844 -1.72851562 4.73242188 C-1.15552993 3.15378781 -0.57820536 1.57672974 0 0 Z M3 8 C2.67 8.99 2.34 9.98 2 11 C2.66 11 3.32 11 4 11 C3.67 10.01 3.34 9.02 3 8 Z " fill="#020202" transform="translate(319,46)"/>
<path d="M0 0 C1.65 0 3.3 0 5 0 C7.94776396 6.19479329 10.17778624 12.38757278 12 19 C10.35 19 8.7 19 7 19 C6.67 17.68 6.34 16.36 6 15 C4.02 15.33 2.04 15.66 0 16 C-0.33 16.99 -0.66 17.98 -1 19 C-2.98 19 -4.96 19 -7 19 C-4.94235079 12.54646385 -2.57616518 6.2638737 0 0 Z M2 7 C1.67 8.32 1.34 9.64 1 11 C1.99 11 2.98 11 4 11 C3.34 9.68 2.68 8.36 2 7 Z " fill="#030303" transform="translate(492,16)"/>
<path d="M0 0 C2.1640625 0.359375 2.1640625 0.359375 4.7265625 2.171875 C6.1640625 4.359375 6.1640625 4.359375 6.1640625 7.359375 C3.7890625 7.484375 3.7890625 7.484375 1.1640625 7.359375 C0.5040625 6.699375 -0.1559375 6.039375 -0.8359375 5.359375 C-2.94414547 5.6778927 -2.94414547 5.6778927 -4.8359375 6.359375 C-4.8359375 8.669375 -4.8359375 10.979375 -4.8359375 13.359375 C-3.5159375 13.689375 -2.1959375 14.019375 -0.8359375 14.359375 C-0.1759375 13.369375 0.4840625 12.379375 1.1640625 11.359375 C3.7890625 11.171875 3.7890625 11.171875 6.1640625 11.359375 C5.84712497 14.29104719 5.53180416 15.94920161 3.5390625 18.171875 C0.14685528 19.86797861 -2.09100595 19.88497943 -5.8359375 19.359375 C-8.80437813 17.10077887 -10.43219643 15.40910179 -11.7734375 11.921875 C-11.86878168 8.01276357 -10.97179972 4.802227 -8.53515625 1.70703125 C-5.81353726 -0.45149416 -3.35626952 -0.10932474 0 0 Z " fill="#020202" transform="translate(478.8359375,15.640625)"/>
<path d="M0 0 C1.98 0 3.96 0 6 0 C7.00605593 2.60197202 8.00502525 5.20629362 9 7.8125 C9.28617187 8.55048828 9.57234375 9.28847656 9.8671875 10.04882812 C10.13789063 10.76103516 10.40859375 11.47324219 10.6875 12.20703125 C10.93886719 12.8616333 11.19023437 13.51623535 11.44921875 14.19067383 C12 16 12 16 12 19 C10.35 19 8.7 19 7 19 C6.67 17.68 6.34 16.36 6 15 C4.02 15 2.04 15 0 15 C-0.33 16.32 -0.66 17.64 -1 19 C-2.65 19 -4.3 19 -6 19 C-5.39124245 14.39583374 -4.15277044 10.43516676 -2.4375 6.125 C-1.75494141 4.39636719 -1.75494141 4.39636719 -1.05859375 2.6328125 C-0.70925781 1.76398437 -0.35992187 0.89515625 0 0 Z M2 8 C2 8.99 2 9.98 2 11 C2.66 11 3.32 11 4 11 C4 10.01 4 9.02 4 8 C3.34 8 2.68 8 2 8 Z " fill="#010101" transform="translate(286,16)"/>
<path d="M0 0 C2.5625 1.8125 2.5625 1.8125 4 4 C4 4.99 4 5.98 4 7 C2.35 7 0.7 7 -1 7 C-1 6.34 -1 5.68 -1 5 C-2.66611905 4.957279 -4.33382885 4.95936168 -6 5 C-7.41577477 6.18424326 -7.41577477 6.18424326 -7.0625 9.5625 C-7.041875 10.696875 -7.02125 11.83125 -7 13 C-5.68 13.33 -4.36 13.66 -3 14 C-2.34 13.01 -1.68 12.02 -1 11 C1.625 10.8125 1.625 10.8125 4 11 C3.65447612 13.55687669 3.24912987 15.57501375 1.9375 17.8125 C-1.25229924 19.76753824 -4.44208598 19.7060452 -8 19 C-11 17.125 -11 17.125 -13 14 C-13.83905521 9.40375954 -13.82769935 5.51145099 -11.5625 1.375 C-7.73607111 -0.67820575 -4.24505343 -0.78669797 0 0 Z " fill="#010101" transform="translate(432,16)"/>
<path d="M0 0 C1.65 0 3.3 0 5 0 C7.94776396 6.19479329 10.17778624 12.38757278 12 19 C10.35 19 8.7 19 7 19 C6.67 17.68 6.34 16.36 6 15 C4.02 15.33 2.04 15.66 0 16 C-0.33 16.99 -0.66 17.98 -1 19 C-2.98 19 -4.96 19 -7 19 C-6.02241999 16.20776841 -5.04301077 13.41620228 -4.0625 10.625 C-3.78470703 9.8309375 -3.50691406 9.036875 -3.22070312 8.21875 C-2.95322266 7.45820312 -2.68574219 6.69765625 -2.41015625 5.9140625 C-2.16402588 5.2123291 -1.91789551 4.5105957 -1.66430664 3.78759766 C-1 2 -1 2 0 0 Z M2 7 C1.67 8.32 1.34 9.64 1 11 C1.99 11 2.98 11 4 11 C3.34 9.68 2.68 8.36 2 7 Z " fill="#020202" transform="translate(199,46)"/>
<path d="M0 0 C9.1796875 -0.1953125 9.1796875 -0.1953125 12 0 C14 2 14 2 14.0625 5.25 C14.041875 6.4875 14.02125 7.725 14 9 C14.2475 10.051875 14.495 11.10375 14.75 12.1875 C15 15 15 15 13.75 17.375 C9.29694748 20.00634921 5.10440189 19.24306676 0 19 C0 12.73 0 6.46 0 0 Z M3 3 C3 4.65 3 6.3 3 8 C6.465 7.505 6.465 7.505 10 7 C10 6.01 10 5.02 10 4 C8.87465895 2.64381501 8.87465895 2.64381501 5.9375 2.9375 C4.968125 2.958125 3.99875 2.97875 3 3 Z M3 11 C3 12.65 3 14.3 3 16 C7.14093698 16.20970559 7.14093698 16.20970559 11 15 C11 13.68 11 12.36 11 11 C8.36 11 5.72 11 3 11 Z " fill="#020202" transform="translate(132,76)"/>
<path d="M0 0 C11.46432574 -0.36981696 11.46432574 -0.36981696 13.8671875 1.2890625 C15.74119749 4.1194638 15.29814274 6.72042981 15 10 C13 12 13 12 11.0546875 12.1953125 C9.03645833 12.13020833 7.01822917 12.06510417 5 12 C5 14.31 5 16.62 5 19 C3.35 19 1.7 19 0 19 C0 12.73 0 6.46 0 0 Z M5 4 C5 5.32 5 6.64 5 8 C6.65 8 8.3 8 10 8 C9.67 6.68 9.34 5.36 9 4 C7.68 4 6.36 4 5 4 Z " fill="#010101" transform="translate(323,16)"/>
<path d="M0 0 C11.625 -0.25 11.625 -0.25 15 2 C15.25660094 5.07921132 15.39431504 7.21136993 14 10 C14.3191623 12.22624593 14.3191623 12.22624593 14.9375 14.625 C15.13214844 15.44226563 15.32679688 16.25953125 15.52734375 17.1015625 C15.68332031 17.72804688 15.83929688 18.35453125 16 19 C14.68 19 13.36 19 12 19 C11.34 16.69 10.68 14.38 10 12 C7.03 11.505 7.03 11.505 4 11 C4 13.64 4 16.28 4 19 C2.68 19 1.36 19 0 19 C0 12.73 0 6.46 0 0 Z M4 3 C4 4.65 4 6.3 4 8 C6.31 8 8.62 8 11 8 C11.33 7.01 11.66 6.02 12 5 C10.10244856 2.65026182 10.10244856 2.65026182 6.875 2.875 C5.92625 2.91625 4.9775 2.9575 4 3 Z " fill="#010101" transform="translate(167,76)"/>
<path d="M0 0 C1.65 0 3.3 0 5 0 C6.32 2.64 7.64 5.28 9 8 C9.99 5.36 10.98 2.72 12 0 C13.65 0 15.3 0 17 0 C15.70024676 6.71539173 13.70071112 12.72019113 11 19 C9.35 19 7.7 19 6 19 C3.29928888 12.72019113 1.29975324 6.71539173 0 0 Z " fill="#020202" transform="translate(181,16)"/>
<path d="M0 0 C1.32 0 2.64 0 4 0 C5.921875 2.40625 5.921875 2.40625 7.75 5.5 C8.67039062 7.03140625 8.67039062 7.03140625 9.609375 8.59375 C10.06828125 9.3878125 10.5271875 10.181875 11 11 C11.33 7.37 11.66 3.74 12 0 C12.99 0 13.98 0 15 0 C15 6.27 15 12.54 15 19 C10 18 10 18 8.19921875 15.71484375 C7.70035156 14.79832031 7.20148438 13.88179687 6.6875 12.9375 C6.17574219 12.01839844 5.66398437 11.09929687 5.13671875 10.15234375 C4.57404297 9.08693359 4.57404297 9.08693359 4 8 C3.67 11.63 3.34 15.26 3 19 C2.01 19 1.02 19 0 19 C0 12.73 0 6.46 0 0 Z " fill="#010101" transform="translate(257,76)"/>
<path d="M0 0 C2.84510981 2.15118058 3.74884291 3.66452047 4.40625 7.16015625 C4.68688961 11.3627344 4.34084408 13.47808251 2 17.0625 C-2.16005119 19.74919973 -4.10298688 19.6995733 -9 19 C-12.57986605 16.79700551 -12.94410834 15.23101887 -13.9375 11.125 C-14.27230597 7.05406373 -13.26449341 4.43867518 -11 1 C-7.51928772 -0.74035614 -3.79787262 -0.57339107 0 0 Z M-8.8125 4.0625 C-10.67036623 7.09375543 -10.37133265 9.53422859 -10 13 C-9.03882095 15.12870693 -9.03882095 15.12870693 -7 16 C-3.91666667 16 -3.91666667 16 -1 15 C1.37222995 12.10420618 1.37222995 12.10420618 0.75 8.4375 C0.3141556 4.95407388 0.3141556 4.95407388 -2 3 C-4.77457104 2.64428576 -6.37896796 2.63594673 -8.8125 4.0625 Z " fill="#020202" transform="translate(249,76)"/>
<path d="M0 0 C1.98 0 3.96 0 6 0 C6.28875 0.639375 6.5775 1.27875 6.875 1.9375 C7.82823451 4.15206079 7.82823451 4.15206079 10 5 C10.66 3.35 11.32 1.7 12 0 C13.98 0 15.96 0 18 0 C16.89177136 3.04762875 15.63805896 5.59226716 13.9375 8.375 C11.83830103 11.92568971 11.33376514 14.91137702 11 19 C9.35 19 7.7 19 6 19 C5.98582031 18.443125 5.97164063 17.88625 5.95703125 17.3125 C5.60724155 11.71586475 4.31367331 8.19339458 1.05859375 3.62890625 C0 2 0 2 0 0 Z " fill="#030303" transform="translate(297,46)"/>
<path d="M0 0 C0.78246094 -0.02578125 1.56492188 -0.0515625 2.37109375 -0.078125 C4.5625 0.25 4.5625 0.25 6.34765625 1.578125 C7.5625 3.25 7.5625 3.25 7.5625 6.25 C6.2425 6.25 4.9225 6.25 3.5625 6.25 C3.2325 5.59 2.9025 4.93 2.5625 4.25 C0.14604218 4.08312552 0.14604218 4.08312552 -2.4375 4.25 C-4.74496414 6.12773264 -4.74496414 6.12773264 -4.6875 9.1875 C-4.67267754 12.42282787 -4.67267754 12.42282787 -2.4375 15.25 C0.64615871 15.5002157 0.64615871 15.5002157 3.5625 15.25 C3.8925 13.93 4.2225 12.61 4.5625 11.25 C5.5525 11.25 6.5425 11.25 7.5625 11.25 C7.25 14.125 7.25 14.125 6.5625 17.25 C2.8740914 19.70893906 -0.15489539 19.9321084 -4.4375 19.25 C-7.72083236 17.14529977 -8.31367628 15.68751048 -9.375 11.9375 C-9.45202357 7.39310954 -8.58123033 5.21987099 -6.4375 1.25 C-4.11063547 0.08656773 -2.59028587 0.05104012 0 0 Z " fill="#060606" transform="translate(194.4375,75.75)"/>
<path d="M0 0 C1.65 0.33 3.3 0.66 5 1 C6.38303225 3.70906317 7.37660974 6.08044186 8.3125 8.9375 C8.57611328 9.67935547 8.83972656 10.42121094 9.11132812 11.18554688 C11 16.59646916 11 16.59646916 11 19 C9.68 19 8.36 19 7 19 C6.79375 18.195625 6.5875 17.39125 6.375 16.5625 C5.92125 15.716875 5.4675 14.87125 5 14 C1.94727535 13.10169161 1.94727535 13.10169161 -1 13 C-1.66 14.98 -2.32 16.96 -3 19 C-4.32 18.67 -5.64 18.34 -7 18 C-4.69 12.06 -2.38 6.12 0 0 Z M1 6 C0.67 7.32 0.34 8.64 0 10 C1.32 10 2.64 10 4 10 C3.67 8.68 3.34 7.36 3 6 C2.34 6 1.68 6 1 6 Z " fill="#050505" transform="translate(281,76)"/>
<path d="M0 0 C2.29296875 0.0390625 2.29296875 0.0390625 5 1 C6.38721973 3.52167058 7.3687731 5.69571202 8.3125 8.375 C8.57611328 9.06078125 8.83972656 9.7465625 9.11132812 10.453125 C10.22425085 13.4247732 11 15.80482639 11 19 C9.68 19 8.36 19 7 19 C6.67 17.02 6.34 15.04 6 13 C3.69 13 1.38 13 -1 13 C-1.66 14.98 -2.32 16.96 -3 19 C-3.99 19 -4.98 19 -6 19 C-4.70024676 12.28460827 -2.70071112 6.27980887 0 0 Z M2 5 C1.67 6.65 1.34 8.3 1 10 C1.99 10 2.98 10 4 10 C3.67 8.35 3.34 6.7 3 5 C2.67 5 2.34 5 2 5 Z " fill="#030303" transform="translate(154,76)"/>
<path d="M0 0 C4.29 0 8.58 0 13 0 C13 0.99 13 1.98 13 3 C9.7 3 6.4 3 3 3 C3 4.65 3 6.3 3 8 C5.97 8 8.94 8 12 8 C12 8.99 12 9.98 12 11 C9.03 11 6.06 11 3 11 C3 12.65 3 14.3 3 16 C6.3 16 9.6 16 13 16 C13 16.99 13 17.98 13 19 C8.71 19 4.42 19 0 19 C0 12.73 0 6.46 0 0 Z " fill="#000000" transform="translate(206,76)"/>
<path d="M0 0 C1.65 0 3.3 0 5 0 C5 4.62 5 9.24 5 14 C7.97 14 10.94 14 14 14 C14 15.65 14 17.3 14 19 C9.38 19 4.76 19 0 19 C0 12.73 0 6.46 0 0 Z " fill="#000000" transform="translate(244,46)"/>
<path d="M0 0 C1.65 0 3.3 0 5 0 C5 4.62 5 9.24 5 14 C7.97 14 10.94 14 14 14 C14 15.65 14 17.3 14 19 C9.38 19 4.76 19 0 19 C0 12.73 0 6.46 0 0 Z " fill="#010101" transform="translate(360,16)"/>
<path d="M0 0 C5.28 0 10.56 0 16 0 C16 1.32 16 2.64 16 4 C14.02 4 12.04 4 10 4 C10 8.95 10 13.9 10 19 C8.35 19 6.7 19 5 19 C5 14.05 5 9.1 5 4 C3.35 4 1.7 4 0 4 C0 2.68 0 1.36 0 0 Z " fill="#000000" transform="translate(210,46)"/>
<path d="M0 0 C5.28 0 10.56 0 16 0 C16 1.32 16 2.64 16 4 C14.02 4 12.04 4 10 4 C10 8.95 10 13.9 10 19 C8.35 19 6.7 19 5 19 C5 14.05 5 9.1 5 4 C3.35 4 1.7 4 0 4 C0 2.68 0 1.36 0 0 Z " fill="#000000" transform="translate(384,16)"/>
<path d="M0 0 C5.28 0 10.56 0 16 0 C16 1.32 16 2.64 16 4 C14.35 4 12.7 4 11 4 C11 8.95 11 13.9 11 19 C9.35 19 7.7 19 6 19 C6 14.05 6 9.1 6 4 C4.02 4 2.04 4 0 4 C0 2.68 0 1.36 0 0 Z " fill="#000000" transform="translate(297,16)"/>
<path d="M0 0 C5.28 0 10.56 0 16 0 C16 1.32 16 2.64 16 4 C14.35 4 12.7 4 11 4 C11 8.95 11 13.9 11 19 C9.35 19 7.7 19 6 19 C6 14.05 6 9.1 6 4 C4.02 4 2.04 4 0 4 C0 2.68 0 1.36 0 0 Z " fill="#000000" transform="translate(265,16)"/>
<path d="M0 0 C4.95 0 9.9 0 15 0 C15 1.32 15 2.64 15 4 C13.35 4 11.7 4 10 4 C10 8.95 10 13.9 10 19 C8.35 19 6.7 19 5 19 C5 14.05 5 9.1 5 4 C3.35 4 1.7 4 0 4 C0 2.68 0 1.36 0 0 Z " fill="#000000" transform="translate(292,76)"/>
<path d="M0 0 C1.65 0 3.3 0 5 0 C5 6.27 5 12.54 5 19 C3.35 19 1.7 19 0 19 C0 12.73 0 6.46 0 0 Z " fill="#000000" transform="translate(459,16)"/>
<path d="M0 0 C1.65 0 3.3 0 5 0 C5 6.27 5 12.54 5 19 C3.35 19 1.7 19 0 19 C0 12.73 0 6.46 0 0 Z " fill="#000000" transform="translate(376,16)"/>
<path d="M0 0 C1.65 0 3.3 0 5 0 C5 6.27 5 12.54 5 19 C3.35 19 1.7 19 0 19 C0 12.73 0 6.46 0 0 Z " fill="#000000" transform="translate(258,16)"/>
<path d="M0 0 C1.65 0 3.3 0 5 0 C5 6.27 5 12.54 5 19 C3.35 19 1.7 19 0 19 C0 12.73 0 6.46 0 0 Z " fill="#000000" transform="translate(173,16)"/>
<path d="M0 0 C0.99 0 1.98 0 3 0 C3 5.28 3 10.56 3 16 C5.97 16 8.94 16 12 16 C12 16.99 12 17.98 12 19 C8.04 19 4.08 19 0 19 C0 12.73 0 6.46 0 0 Z " fill="#000000" transform="translate(223,76)"/>
<path d="M0 0 C2.475 0.495 2.475 0.495 5 1 C4.67 2.32 4.34 3.64 4 5 C2.68 5 1.36 5 0 5 C0 3.35 0 1.7 0 0 Z " fill="#030303" transform="translate(55,80)"/>
<path d="M0 0 C1.98 0 3.96 0 6 0 C6.66 1.32 7.32 2.64 8 4 C5.6875 4.25 5.6875 4.25 3 4 C1.1875 2 1.1875 2 0 0 Z " fill="#080808" transform="translate(404,11)"/>
</svg>
